<mxfile host="app.diagrams.net" agent="Mozilla/5.0 (Windows NT 10.0; Win64; x64) AppleWebKit/537.36 (KHTML, like Gecko) Chrome/131.0.0.0 Safari/537.36" version="25.0.3">
  <diagram name="Page-1" id="e7e014a7-5840-1c2e-5031-d8a46d1fe8dd">
    <mxGraphModel dx="1050" dy="522" grid="1" gridSize="10" guides="1" tooltips="1" connect="1" arrows="1" fold="1" page="1" pageScale="1" pageWidth="1169" pageHeight="826" background="none" math="0" shadow="0">
      <root>
        <mxCell id="0" />
        <mxCell id="1" parent="0" />
        <mxCell id="2" value="Fase 1 - Base teórica" style="swimlane;whiteSpace=wrap;startSize=23;fillColor=#dae8fc;strokeColor=#6c8ebf;" parent="1" vertex="1">
          <mxGeometry x="100" y="100" width="322.5" height="580" as="geometry" />
        </mxCell>
        <mxCell id="5" value="" style="ellipse;shape=startState;fillColor=#000000;strokeColor=#ff0000;" parent="2" vertex="1">
          <mxGeometry x="126" y="25" width="30" height="30" as="geometry" />
        </mxCell>
        <mxCell id="6" value="" style="edgeStyle=elbowEdgeStyle;elbow=horizontal;verticalAlign=bottom;endArrow=open;endSize=8;strokeColor=#FF0000;endFill=1;rounded=0" parent="2" edge="1">
          <mxGeometry x="100" y="40" as="geometry">
            <mxPoint x="141" y="80" as="targetPoint" />
            <mxPoint x="141" y="60" as="sourcePoint" />
          </mxGeometry>
        </mxCell>
        <mxCell id="Vs5-r7q9pi_8WdNEjkWc-54" value="" style="edgeStyle=orthogonalEdgeStyle;rounded=0;orthogonalLoop=1;jettySize=auto;html=1;" edge="1" parent="2" source="7" target="Vs5-r7q9pi_8WdNEjkWc-53">
          <mxGeometry relative="1" as="geometry" />
        </mxCell>
        <mxCell id="Vs5-r7q9pi_8WdNEjkWc-55" style="edgeStyle=orthogonalEdgeStyle;rounded=0;orthogonalLoop=1;jettySize=auto;html=1;" edge="1" parent="2">
          <mxGeometry relative="1" as="geometry">
            <mxPoint x="150" y="261" as="sourcePoint" />
            <mxPoint x="99" y="309" as="targetPoint" />
            <Array as="points">
              <mxPoint x="150" y="285" />
              <mxPoint x="100" y="285" />
            </Array>
          </mxGeometry>
        </mxCell>
        <mxCell id="7" value="Mapeamento Sistemático &#xa;da Literatura" style="fillColor=#dae8fc;strokeColor=#6c8ebf;" parent="2" vertex="1">
          <mxGeometry x="50" y="190" width="200" height="70" as="geometry" />
        </mxCell>
        <mxCell id="8" value="Nacional " style="fillColor=#dae8fc;strokeColor=#6c8ebf;" parent="2" vertex="1">
          <mxGeometry x="34" y="310" width="105" height="60" as="geometry" />
        </mxCell>
        <mxCell id="10" value="Análise Documental" style="fillColor=#dae8fc;strokeColor=#6c8ebf;" parent="2" vertex="1">
          <mxGeometry x="99.25" y="410" width="124" height="55" as="geometry" />
        </mxCell>
        <mxCell id="12" value="" style="edgeStyle=elbowEdgeStyle;elbow=horizontal;strokeColor=#b85450;endArrow=open;endFill=1;rounded=0;exitX=0;exitY=0.75;exitDx=0;exitDy=0;fillColor=#f8cecc;gradientColor=#ea6b66;" parent="2" source="Vs5-r7q9pi_8WdNEjkWc-60" edge="1">
          <mxGeometry width="100" height="100" relative="1" as="geometry">
            <mxPoint x="55" y="526" as="sourcePoint" />
            <mxPoint x="50" y="120" as="targetPoint" />
            <Array as="points">
              <mxPoint x="15" y="426" />
            </Array>
          </mxGeometry>
        </mxCell>
        <mxCell id="Vs5-r7q9pi_8WdNEjkWc-53" value="Internacional " style="fillColor=#dae8fc;strokeColor=#6c8ebf;" vertex="1" parent="2">
          <mxGeometry x="139" y="310" width="105" height="60" as="geometry" />
        </mxCell>
        <mxCell id="Vs5-r7q9pi_8WdNEjkWc-60" value="Levantamento de&#xa; Informações &#xa;com Survey" style="fillColor=#dae8fc;strokeColor=#6c8ebf;" vertex="1" parent="2">
          <mxGeometry x="78.5" y="490" width="125" height="52" as="geometry" />
        </mxCell>
        <mxCell id="Vs5-r7q9pi_8WdNEjkWc-63" value="Estado da Arte Formação de&#xa; Professores Sobre PC" style="fillColor=#dae8fc;strokeColor=#6c8ebf;" vertex="1" parent="2">
          <mxGeometry x="55" y="90" width="200" height="70" as="geometry" />
        </mxCell>
        <mxCell id="Vs5-r7q9pi_8WdNEjkWc-149" style="edgeStyle=orthogonalEdgeStyle;rounded=0;orthogonalLoop=1;jettySize=auto;html=1;entryX=-0.008;entryY=0.389;entryDx=0;entryDy=0;entryPerimeter=0;fillColor=#f8cecc;gradientColor=#ea6b66;strokeColor=#b85450;" edge="1" parent="2" source="10" target="7">
          <mxGeometry relative="1" as="geometry">
            <Array as="points">
              <mxPoint x="20" y="438" />
              <mxPoint x="20" y="217" />
            </Array>
          </mxGeometry>
        </mxCell>
        <mxCell id="3" value="Fase 2 - Organização do curso" style="swimlane;whiteSpace=wrap;fillColor=#fff2cc;strokeColor=#d6b656;gradientColor=#ffd966;" parent="1" vertex="1">
          <mxGeometry x="430" y="100" width="280" height="570" as="geometry">
            <mxRectangle x="430" y="100" width="210" height="30" as="alternateBounds" />
          </mxGeometry>
        </mxCell>
        <mxCell id="13" value="" style="ellipse;shape=startState;fillColor=#000000;strokeColor=#ff0000;" parent="3" vertex="1">
          <mxGeometry x="125" y="20" width="30" height="30" as="geometry" />
        </mxCell>
        <mxCell id="14" value="" style="edgeStyle=elbowEdgeStyle;elbow=horizontal;verticalAlign=bottom;endArrow=open;endSize=8;strokeColor=#b85450;endFill=1;rounded=0;fillColor=#f8cecc;gradientColor=#ea6b66;" parent="3" source="13" target="15" edge="1">
          <mxGeometry x="40" y="20" as="geometry">
            <mxPoint x="75" y="90" as="targetPoint" />
          </mxGeometry>
        </mxCell>
        <mxCell id="Vs5-r7q9pi_8WdNEjkWc-68" value="" style="edgeStyle=orthogonalEdgeStyle;rounded=0;orthogonalLoop=1;jettySize=auto;html=1;" edge="1" parent="3" source="15" target="16">
          <mxGeometry relative="1" as="geometry" />
        </mxCell>
        <mxCell id="15" value="Criação do formulários Survey&#xa; pré e pós formação" style="fillColor=#fff2cc;gradientColor=#ffd966;strokeColor=#d6b656;" parent="3" vertex="1">
          <mxGeometry x="45" y="80" width="200" height="80" as="geometry" />
        </mxCell>
        <mxCell id="Vs5-r7q9pi_8WdNEjkWc-69" value="" style="edgeStyle=orthogonalEdgeStyle;rounded=0;orthogonalLoop=1;jettySize=auto;html=1;" edge="1" parent="3">
          <mxGeometry relative="1" as="geometry">
            <mxPoint x="150" y="250" as="sourcePoint" />
            <mxPoint x="85" y="300" as="targetPoint" />
            <Array as="points">
              <mxPoint x="150" y="280" />
              <mxPoint x="85" y="280" />
            </Array>
          </mxGeometry>
        </mxCell>
        <mxCell id="16" value="Criação dos conteúdos &#xa;especificos do curso" style="fillColor=#fff2cc;gradientColor=#ffd966;strokeColor=#d6b656;" parent="3" vertex="1">
          <mxGeometry x="40" y="190" width="210" height="70" as="geometry" />
        </mxCell>
        <mxCell id="Vs5-r7q9pi_8WdNEjkWc-80" value="" style="edgeStyle=orthogonalEdgeStyle;rounded=0;orthogonalLoop=1;jettySize=auto;html=1;" edge="1" parent="3" source="18" target="Vs5-r7q9pi_8WdNEjkWc-77">
          <mxGeometry relative="1" as="geometry" />
        </mxCell>
        <mxCell id="18" value="Criação das&#xa; atividades" style="fillColor=#fff2cc;gradientColor=#ffd966;strokeColor=#d6b656;" parent="3" vertex="1">
          <mxGeometry x="20" y="300" width="110" height="50" as="geometry" />
        </mxCell>
        <mxCell id="Vs5-r7q9pi_8WdNEjkWc-82" value="" style="edgeStyle=orthogonalEdgeStyle;rounded=0;orthogonalLoop=1;jettySize=auto;html=1;" edge="1" parent="3" source="30" target="Vs5-r7q9pi_8WdNEjkWc-77">
          <mxGeometry relative="1" as="geometry" />
        </mxCell>
        <mxCell id="30" value="Elaboração &#xa;do Ebook" style="fillColor=#fff2cc;gradientColor=#ffd966;strokeColor=#d6b656;" parent="3" vertex="1">
          <mxGeometry x="160" y="300" width="110" height="50" as="geometry" />
        </mxCell>
        <mxCell id="Vs5-r7q9pi_8WdNEjkWc-72" style="edgeStyle=orthogonalEdgeStyle;rounded=0;orthogonalLoop=1;jettySize=auto;html=1;entryX=0.429;entryY=-0.04;entryDx=0;entryDy=0;entryPerimeter=0;" edge="1" parent="3" source="16" target="30">
          <mxGeometry relative="1" as="geometry">
            <Array as="points">
              <mxPoint x="150" y="280" />
              <mxPoint x="207" y="280" />
            </Array>
          </mxGeometry>
        </mxCell>
        <mxCell id="Vs5-r7q9pi_8WdNEjkWc-77" value="Preparação do&amp;nbsp; curso" style="rounded=0;whiteSpace=wrap;html=1;fillColor=#fff2cc;gradientColor=#ffd966;strokeColor=#d6b656;" vertex="1" parent="3">
          <mxGeometry x="91" y="390" width="120" height="60" as="geometry" />
        </mxCell>
        <mxCell id="4" value="Fase 3 - Realização do curso" style="swimlane;whiteSpace=wrap;fillColor=#f8cecc;gradientColor=#ea6b66;strokeColor=#b85450;" parent="1" vertex="1">
          <mxGeometry x="718" y="99" width="316" height="570" as="geometry" />
        </mxCell>
        <mxCell id="Vs5-r7q9pi_8WdNEjkWc-88" value=" Surver&#xa;Pré formação" style="fillColor=#f8cecc;gradientColor=#ea6b66;strokeColor=#b85450;" vertex="1" parent="4">
          <mxGeometry x="26" y="160" width="110" height="70" as="geometry" />
        </mxCell>
        <mxCell id="Vs5-r7q9pi_8WdNEjkWc-90" value="Acompanhar &#xa;desenvolvimento&#xa; cursista" style="fillColor=#f8cecc;gradientColor=#ea6b66;strokeColor=#b85450;" vertex="1" parent="4">
          <mxGeometry x="176" y="270" width="110" height="50" as="geometry" />
        </mxCell>
        <mxCell id="Vs5-r7q9pi_8WdNEjkWc-92" value=" Survey&#xa;Pós formação" style="fillColor=#f8cecc;gradientColor=#ea6b66;strokeColor=#b85450;" vertex="1" parent="4">
          <mxGeometry x="26" y="360" width="110" height="50" as="geometry" />
        </mxCell>
        <mxCell id="Vs5-r7q9pi_8WdNEjkWc-94" value="Finalização do curso" style="rounded=0;whiteSpace=wrap;html=1;fillColor=#f8cecc;gradientColor=#ea6b66;strokeColor=#b85450;" vertex="1" parent="4">
          <mxGeometry x="112" y="460" width="120" height="60" as="geometry" />
        </mxCell>
        <mxCell id="Vs5-r7q9pi_8WdNEjkWc-104" value="" style="edgeStyle=orthogonalEdgeStyle;rounded=0;orthogonalLoop=1;jettySize=auto;html=1;" edge="1" parent="4" target="Vs5-r7q9pi_8WdNEjkWc-88">
          <mxGeometry relative="1" as="geometry">
            <mxPoint x="76" y="70" as="sourcePoint" />
            <Array as="points">
              <mxPoint x="36" y="70" />
              <mxPoint x="36" y="120" />
              <mxPoint x="81" y="120" />
            </Array>
          </mxGeometry>
        </mxCell>
        <mxCell id="Vs5-r7q9pi_8WdNEjkWc-95" value="&lt;font style=&quot;font-size: 14px;&quot;&gt;Professores da&lt;/font&gt;&lt;div&gt;&lt;font style=&quot;font-size: 14px;&quot;&gt;Educação&amp;nbsp;Básica&lt;/font&gt;&lt;/div&gt;" style="shape=umlActor;verticalLabelPosition=bottom;verticalAlign=top;html=1;" vertex="1" parent="4">
          <mxGeometry x="77" y="30" width="35" height="50" as="geometry" />
        </mxCell>
        <mxCell id="Vs5-r7q9pi_8WdNEjkWc-116" style="edgeStyle=orthogonalEdgeStyle;rounded=0;orthogonalLoop=1;jettySize=auto;html=1;entryX=0.5;entryY=0;entryDx=0;entryDy=0;" edge="1" parent="4" source="Vs5-r7q9pi_8WdNEjkWc-107" target="Vs5-r7q9pi_8WdNEjkWc-90">
          <mxGeometry relative="1" as="geometry">
            <mxPoint x="228" y="263" as="targetPoint" />
          </mxGeometry>
        </mxCell>
        <mxCell id="Vs5-r7q9pi_8WdNEjkWc-107" value="Palestra de Divulgação" style="rounded=0;whiteSpace=wrap;html=1;fillColor=#f8cecc;gradientColor=#ea6b66;strokeColor=#b85450;" vertex="1" parent="4">
          <mxGeometry x="166" y="165" width="120" height="60" as="geometry" />
        </mxCell>
        <mxCell id="Vs5-r7q9pi_8WdNEjkWc-110" style="edgeStyle=orthogonalEdgeStyle;rounded=0;orthogonalLoop=1;jettySize=auto;html=1;" edge="1" parent="4" source="Vs5-r7q9pi_8WdNEjkWc-108">
          <mxGeometry relative="1" as="geometry">
            <mxPoint x="226" y="160" as="targetPoint" />
            <Array as="points">
              <mxPoint x="296" y="60" />
              <mxPoint x="296" y="120" />
              <mxPoint x="226" y="120" />
            </Array>
          </mxGeometry>
        </mxCell>
        <mxCell id="Vs5-r7q9pi_8WdNEjkWc-108" value="&lt;span style=&quot;font-size: 14px;&quot;&gt;Pesquisador&lt;/span&gt;" style="shape=umlActor;verticalLabelPosition=bottom;verticalAlign=top;html=1;" vertex="1" parent="4">
          <mxGeometry x="232" y="30" width="35" height="50" as="geometry" />
        </mxCell>
        <mxCell id="Vs5-r7q9pi_8WdNEjkWc-126" style="edgeStyle=orthogonalEdgeStyle;rounded=0;orthogonalLoop=1;jettySize=auto;html=1;" edge="1" parent="4" source="Vs5-r7q9pi_8WdNEjkWc-120" target="Vs5-r7q9pi_8WdNEjkWc-92">
          <mxGeometry relative="1" as="geometry" />
        </mxCell>
        <mxCell id="Vs5-r7q9pi_8WdNEjkWc-120" value=" Survey&#xa;Pós formação" style="fillColor=#f8cecc;gradientColor=#ea6b66;strokeColor=#b85450;" vertex="1" parent="4">
          <mxGeometry x="26" y="270" width="110" height="50" as="geometry" />
        </mxCell>
        <mxCell id="Vs5-r7q9pi_8WdNEjkWc-121" style="edgeStyle=orthogonalEdgeStyle;rounded=0;orthogonalLoop=1;jettySize=auto;html=1;entryX=0.397;entryY=-0.02;entryDx=0;entryDy=0;entryPerimeter=0;" edge="1" parent="4" source="Vs5-r7q9pi_8WdNEjkWc-92" target="Vs5-r7q9pi_8WdNEjkWc-94">
          <mxGeometry relative="1" as="geometry">
            <Array as="points">
              <mxPoint x="81" y="430" />
              <mxPoint x="160" y="430" />
            </Array>
          </mxGeometry>
        </mxCell>
        <mxCell id="Vs5-r7q9pi_8WdNEjkWc-125" style="edgeStyle=orthogonalEdgeStyle;rounded=0;orthogonalLoop=1;jettySize=auto;html=1;entryX=0.444;entryY=-0.016;entryDx=0;entryDy=0;entryPerimeter=0;" edge="1" parent="4" source="Vs5-r7q9pi_8WdNEjkWc-88" target="Vs5-r7q9pi_8WdNEjkWc-120">
          <mxGeometry relative="1" as="geometry" />
        </mxCell>
        <mxCell id="Vs5-r7q9pi_8WdNEjkWc-127" style="edgeStyle=orthogonalEdgeStyle;rounded=0;orthogonalLoop=1;jettySize=auto;html=1;entryX=0.563;entryY=0.007;entryDx=0;entryDy=0;entryPerimeter=0;" edge="1" parent="4" source="Vs5-r7q9pi_8WdNEjkWc-90" target="Vs5-r7q9pi_8WdNEjkWc-94">
          <mxGeometry relative="1" as="geometry">
            <Array as="points">
              <mxPoint x="231" y="430" />
              <mxPoint x="180" y="430" />
            </Array>
          </mxGeometry>
        </mxCell>
        <mxCell id="Vs5-r7q9pi_8WdNEjkWc-128" value="Fase 3 - Compilação e análise dos dados" style="swimlane;whiteSpace=wrap;fillColor=#d5e8d4;gradientColor=#97d077;strokeColor=#82b366;" vertex="1" parent="1">
          <mxGeometry x="1050" y="99" width="316" height="570" as="geometry" />
        </mxCell>
        <mxCell id="Vs5-r7q9pi_8WdNEjkWc-129" value="Analisar Mapeamento&#xa; e documentos" style="fillColor=#d5e8d4;gradientColor=#97d077;strokeColor=#82b366;" vertex="1" parent="Vs5-r7q9pi_8WdNEjkWc-128">
          <mxGeometry x="96" y="40" width="144" height="70" as="geometry" />
        </mxCell>
        <mxCell id="Vs5-r7q9pi_8WdNEjkWc-144" value="" style="edgeStyle=orthogonalEdgeStyle;rounded=0;orthogonalLoop=1;jettySize=auto;html=1;" edge="1" parent="Vs5-r7q9pi_8WdNEjkWc-128" source="Vs5-r7q9pi_8WdNEjkWc-131" target="Vs5-r7q9pi_8WdNEjkWc-132">
          <mxGeometry relative="1" as="geometry" />
        </mxCell>
        <mxCell id="Vs5-r7q9pi_8WdNEjkWc-131" value="preparar designer&#xa; do repositório" style="fillColor=#d5e8d4;gradientColor=#97d077;strokeColor=#82b366;" vertex="1" parent="Vs5-r7q9pi_8WdNEjkWc-128">
          <mxGeometry x="120" y="240" width="110" height="50" as="geometry" />
        </mxCell>
        <mxCell id="Vs5-r7q9pi_8WdNEjkWc-146" value="" style="edgeStyle=orthogonalEdgeStyle;rounded=0;orthogonalLoop=1;jettySize=auto;html=1;fillColor=#f8cecc;gradientColor=#ea6b66;strokeColor=#b85450;" edge="1" parent="Vs5-r7q9pi_8WdNEjkWc-128" source="Vs5-r7q9pi_8WdNEjkWc-132" target="Vs5-r7q9pi_8WdNEjkWc-145">
          <mxGeometry relative="1" as="geometry" />
        </mxCell>
        <mxCell id="Vs5-r7q9pi_8WdNEjkWc-132" value="Finalização do curso" style="rounded=0;whiteSpace=wrap;html=1;fillColor=#d5e8d4;gradientColor=#97d077;strokeColor=#82b366;" vertex="1" parent="Vs5-r7q9pi_8WdNEjkWc-128">
          <mxGeometry x="115" y="330" width="120" height="60" as="geometry" />
        </mxCell>
        <mxCell id="Vs5-r7q9pi_8WdNEjkWc-139" style="edgeStyle=orthogonalEdgeStyle;rounded=0;orthogonalLoop=1;jettySize=auto;html=1;" edge="1" parent="Vs5-r7q9pi_8WdNEjkWc-128" source="Vs5-r7q9pi_8WdNEjkWc-140" target="Vs5-r7q9pi_8WdNEjkWc-131">
          <mxGeometry relative="1" as="geometry" />
        </mxCell>
        <mxCell id="Vs5-r7q9pi_8WdNEjkWc-140" value="Realizar as&#xa; análises finais" style="fillColor=#d5e8d4;gradientColor=#97d077;strokeColor=#82b366;" vertex="1" parent="Vs5-r7q9pi_8WdNEjkWc-128">
          <mxGeometry x="120" y="150" width="110" height="50" as="geometry" />
        </mxCell>
        <mxCell id="Vs5-r7q9pi_8WdNEjkWc-142" style="edgeStyle=orthogonalEdgeStyle;rounded=0;orthogonalLoop=1;jettySize=auto;html=1;entryX=0.444;entryY=-0.016;entryDx=0;entryDy=0;entryPerimeter=0;" edge="1" parent="Vs5-r7q9pi_8WdNEjkWc-128" source="Vs5-r7q9pi_8WdNEjkWc-129" target="Vs5-r7q9pi_8WdNEjkWc-140">
          <mxGeometry relative="1" as="geometry" />
        </mxCell>
        <mxCell id="Vs5-r7q9pi_8WdNEjkWc-145" value="" style="ellipse;shape=startState;fillColor=#000000;strokeColor=#ff0000;" vertex="1" parent="Vs5-r7q9pi_8WdNEjkWc-128">
          <mxGeometry x="160" y="440" width="30" height="30" as="geometry" />
        </mxCell>
        <mxCell id="Vs5-r7q9pi_8WdNEjkWc-152" style="edgeStyle=orthogonalEdgeStyle;rounded=0;orthogonalLoop=1;jettySize=auto;html=1;entryX=0.5;entryY=0;entryDx=0;entryDy=0;" edge="1" parent="1" source="Vs5-r7q9pi_8WdNEjkWc-150" target="2">
          <mxGeometry relative="1" as="geometry">
            <mxPoint x="350" y="90" as="targetPoint" />
          </mxGeometry>
        </mxCell>
        <mxCell id="Vs5-r7q9pi_8WdNEjkWc-150" value="&lt;b&gt;&lt;font style=&quot;font-size: 14px;&quot;&gt;Fase Exploratória&amp;nbsp;&lt;/font&gt;&lt;/b&gt;" style="text;html=1;align=center;verticalAlign=middle;whiteSpace=wrap;rounded=0;fillColor=#eeeeee;strokeColor=#36393d;" vertex="1" parent="1">
          <mxGeometry x="130" y="40" width="570" height="30" as="geometry" />
        </mxCell>
        <mxCell id="Vs5-r7q9pi_8WdNEjkWc-154" style="edgeStyle=orthogonalEdgeStyle;rounded=0;orthogonalLoop=1;jettySize=auto;html=1;entryX=0.5;entryY=0;entryDx=0;entryDy=0;" edge="1" parent="1" source="Vs5-r7q9pi_8WdNEjkWc-151" target="4">
          <mxGeometry relative="1" as="geometry" />
        </mxCell>
        <mxCell id="Vs5-r7q9pi_8WdNEjkWc-151" value="&lt;font style=&quot;font-size: 14px;&quot;&gt;&lt;b&gt;Fase Descritiva&amp;nbsp;&lt;/b&gt;&lt;/font&gt;" style="text;html=1;align=center;verticalAlign=middle;whiteSpace=wrap;rounded=0;fillColor=#ffff88;strokeColor=#36393d;" vertex="1" parent="1">
          <mxGeometry x="718" y="40" width="642" height="30" as="geometry" />
        </mxCell>
        <mxCell id="Vs5-r7q9pi_8WdNEjkWc-153" style="edgeStyle=orthogonalEdgeStyle;rounded=0;orthogonalLoop=1;jettySize=auto;html=1;entryX=0.551;entryY=0.001;entryDx=0;entryDy=0;entryPerimeter=0;" edge="1" parent="1" source="Vs5-r7q9pi_8WdNEjkWc-150" target="3">
          <mxGeometry relative="1" as="geometry" />
        </mxCell>
        <mxCell id="Vs5-r7q9pi_8WdNEjkWc-155" style="edgeStyle=orthogonalEdgeStyle;rounded=0;orthogonalLoop=1;jettySize=auto;html=1;entryX=0.542;entryY=0;entryDx=0;entryDy=0;entryPerimeter=0;" edge="1" parent="1" source="Vs5-r7q9pi_8WdNEjkWc-151" target="Vs5-r7q9pi_8WdNEjkWc-128">
          <mxGeometry relative="1" as="geometry" />
        </mxCell>
      </root>
    </mxGraphModel>
  </diagram>
</mxfile>
